<svg xmlns="http://www.w3.org/2000/svg" viewBox="0 0 512 512" role="img" aria-label="Lavoie&amp;Maher"><defs><linearGradient id="lmg" x1=".1" y1="0" x2=".9" y2="1"><stop offset="0" stop-color="#F6EAC6"/><stop offset=".38" stop-color="#D9BE84"/><stop offset=".7" stop-color="#A9894C"/><stop offset="1" stop-color="#E9D6A4"/></linearGradient><linearGradient id="lmb" x1="0" y1="0" x2="0" y2="1"><stop offset="0" stop-color="#F6EAC6" stop-opacity=".62"/><stop offset=".55" stop-color="#D9BE84" stop-opacity=".16"/><stop offset="1" stop-color="#D9BE84" stop-opacity="0"/></linearGradient><radialGradient id="lmp" cx=".5" cy=".5" r=".5"><stop offset="0" stop-color="#E9D6A4" stop-opacity=".45"/><stop offset="1" stop-color="#E9D6A4" stop-opacity="0"/></radialGradient></defs><style>@media (prefers-reduced-motion:no-preference){.lm-beam,.lm-pool{animation:lmb 1.6s .2s ease-out both}.lm-amp{animation:lma 1.2s .1s cubic-bezier(.2,.7,.2,1) both}}@keyframes lmb{from{opacity:0}}@keyframes lma{from{opacity:0;transform:translateY(4%)}}</style><circle cx="256.0" cy="256.0" r="232.96" fill="none" stroke="url(#lmg)" stroke-width="8.19"/><circle cx="256.0" cy="256.0" r="209.66" fill="none" stroke="url(#lmg)" stroke-width="2.05" opacity=".75"/><path d="M256.00 40.51L256.00 28.86M274.78 41.33L275.39 34.37M293.42 43.79L294.63 36.90M311.77 47.85L313.58 41.10M329.70 53.51L332.09 46.94M347.07 60.70L350.02 54.37M363.74 69.38L367.24 63.33M379.60 79.48L383.61 73.76M394.51 90.93L399.01 85.57M408.37 103.63L413.31 98.69M421.07 117.49L426.43 112.99M432.52 132.40L438.24 128.39M442.62 148.26L448.67 144.76M451.30 164.93L457.63 161.98M458.49 182.30L465.06 179.91M464.15 200.23L470.90 198.42M468.21 218.58L475.10 217.37M470.67 237.22L477.63 236.61M471.49 256.00L483.14 256.00M470.67 274.78L477.63 275.39M468.21 293.42L475.10 294.63M464.15 311.77L470.90 313.58M458.49 329.70L465.06 332.09M451.30 347.07L457.63 350.02M442.62 363.74L448.67 367.24M432.52 379.60L438.24 383.61M421.07 394.51L426.43 399.01M408.37 408.37L413.31 413.31M394.51 421.07L399.01 426.43M379.60 432.52L383.61 438.24M363.74 442.62L367.24 448.67M347.07 451.30L350.02 457.63M329.70 458.49L332.09 465.06M311.77 464.15L313.58 470.90M293.42 468.21L294.63 475.10M274.78 470.67L275.39 477.63M256.00 471.49L256.00 483.14M237.22 470.67L236.61 477.63M218.58 468.21L217.37 475.10M200.23 464.15L198.42 470.90M182.30 458.49L179.91 465.06M164.93 451.30L161.98 457.63M148.26 442.62L144.76 448.67M132.40 432.52L128.39 438.24M117.49 421.07L112.99 426.43M103.63 408.37L98.69 413.31M90.93 394.51L85.57 399.01M79.48 379.60L73.76 383.61M69.38 363.74L63.33 367.24M60.70 347.07L54.37 350.02M53.51 329.70L46.94 332.09M47.85 311.77L41.10 313.58M43.79 293.42L36.90 294.63M41.33 274.78L34.37 275.39M40.51 256.00L28.86 256.00M41.33 237.22L34.37 236.61M43.79 218.58L36.90 217.37M47.85 200.23L41.10 198.42M53.51 182.30L46.94 179.91M60.70 164.93L54.37 161.98M69.38 148.26L63.33 144.76M79.48 132.40L73.76 128.39M90.93 117.49L85.57 112.99M103.63 103.63L98.69 98.69M117.49 90.93L112.99 85.57M132.40 79.48L128.39 73.76M148.26 69.38L144.76 63.33M164.93 60.70L161.98 54.37M182.30 53.51L179.91 46.94M200.23 47.85L198.42 41.10M218.58 43.79L217.37 36.90M237.22 41.33L236.61 34.37" stroke="url(#lmg)" stroke-width="1.54" opacity=".6"/><clipPath id="lmc"><circle cx="256.0" cy="256.0" r="207.62"/></clipPath><g clip-path="url(#lmc)"><path class="lm-beam" d="M246.78 50.53L265.22 50.53L394.38 444.70L117.62 444.70Z" fill="url(#lmb)"/><ellipse class="lm-pool" cx="256.0" cy="390.18" rx="129.99" ry="20.97" fill="url(#lmp)"/></g><circle cx="256.0" cy="53.60" r="5.63" fill="#F6EAC6"/><g class="lm-amp"><path d="M33.5 0.0V-4.0H213V-1496H33.5V-1500.0H703V-1496H523.5V-4.0H728Q838.5 -4.0 919.5 -37.5Q1000.5 -71.0 1055.25 -131.5Q1110 -192 1141.5 -273.5Q1173 -355 1184 -450H1188V0Z" transform="translate(90.37 334.25) scale(0.08386)" fill="url(#lmg)"/><path d="M1144.8046875 20.0Q1030.484130859375 20.0 958.3433837890625 -30.41009521484375Q886.20263671875 -80.8201904296875 844.40234375 -182.0L521.3994140625 -939.0Q494.71923828125 -1001.0198974609375 481.6591796875 -1057.5099487304688Q468.59912109375 -1114.0 468.59912109375 -1166.0Q468.59912109375 -1266.0 529.6993408203125 -1346.0Q590.799560546875 -1426.0 696.8997802734375 -1473.0Q803 -1520 938 -1520Q1005.1002197265625 -1520.0 1067.4705200195312 -1503.1499633789062Q1129.8408203125 -1486.2999267578125 1179.0711059570312 -1454.2398681640625Q1228.3013916015625 -1422.1798095703125 1257.0515747070312 -1375.3297729492188Q1285.8017578125 -1328.479736328125 1285.8017578125 -1268.479736328125Q1285.8017578125 -1192.479736328125 1242.9318237304688 -1135.159912109375Q1200.0618896484375 -1077.840087890625 1128.261962890625 -1033.5103149414062Q1056.4620361328125 -989.1805419921875 969.0320434570312 -952.5106811523438Q881.60205078125 -915.8408203125 792.6219482421875 -880.4207763671875L791.761962890625 -883.560791015625Q876.6610107421875 -920.92041015625 938.3102416992188 -981.9701538085938Q999.95947265625 -1043.0198974609375 1034.0490112304688 -1114.9598388671875Q1068.1385498046875 -1186.8997802734375 1068.1385498046875 -1256.0Q1068.1385498046875 -1318.0 1058.6986083984375 -1377.5Q1049.2586669921875 -1437.0 1021.0689086914062 -1476.5Q992.879150390625 -1516.0 935.19970703125 -1516.0Q858.200439453125 -1516.0 807.1709594726562 -1473.1400146484375Q756.1414794921875 -1430.280029296875 730.8717651367188 -1367.340087890625Q705.60205078125 -1304.400146484375 705.60205078125 -1242.80029296875Q705.60205078125 -1190.80029296875 724.2420654296875 -1117.1300659179688Q742.882080078125 -1043.4598388671875 786.40234375 -939.0L1118.524658203125 -139.120849609375Q1131.0648193359375 -109.28076171875 1148.0250244140625 -79.03057861328125Q1164.9852294921875 -48.7803955078125 1190.745361328125 -28.45025634765625Q1216.5054931640625 -8.1201171875 1255.805419921875 -8.1201171875Q1306.72509765625 -8.1201171875 1362.3150024414062 -46.92999267578125Q1417.9049072265625 -85.7398681640625 1440.7449951171875 -142.8599853515625L1445.60498046875 -141.0Q1417.60498046875 -75.0 1342.2449951171875 -27.5Q1266.885009765625 20.0 1144.8046875 20.0ZM493.00146484375 20.0Q350.00146484375 20.0 248.5010986328125 -20.8798828125Q147.000732421875 -61.759765625 93.5003662109375 -137.979736328125Q40.0 -214.19970703125 40 -320Q40.0 -433.0198974609375 85.3599853515625 -507.43994140625Q130.719970703125 -581.8599853515625 208.5799560546875 -632.0501098632812Q286.43994140625 -682.240234375 385.2999267578125 -721.2903442382812Q484.159912109375 -760.3404541015625 592.159912109375 -803.3404541015625L593.0198974609375 -801.0604248046875Q503.0206298828125 -757.16064453125 433.8212890625 -690.220703125Q364.6219482421875 -623.28076171875 325.61236572265625 -538.1908569335938Q286.602783203125 -453.1009521484375 286.602783203125 -351.601318359375Q286.602783203125 -301.5010986328125 299.9229736328125 -240.9609375Q313.2431640625 -180.4207763671875 344.11346435546875 -124.87066650390625Q374.9837646484375 -69.320556640625 428.5640869140625 -33.83050537109375Q482.1444091796875 1.6595458984375 562.8046875 1.6595458984375Q708.924072265625 1.6595458984375 855.1536254882812 -46.03021240234375Q1001.3831787109375 -93.719970703125 1133.0128784179688 -172.9996337890625Q1264.642578125 -252.279296875 1366.8923950195312 -348.40899658203125Q1469.1422119140625 -444.5386962890625 1528.3721313476562 -543.778564453125Q1587.60205078125 -643.0184326171875 1587.60205078125 -728.6986083984375H1589.60205078125Q1589.60205078125 -700.8983154296875 1567.5718383789062 -679.3179931640625Q1545.5416259765625 -657.7376708984375 1510.8212890625 -645.5674438476562Q1476.1009521484375 -633.397216796875 1437.6005859375 -633.397216796875Q1392.7000732421875 -633.397216796875 1359.0497436523438 -652.0674438476562Q1325.3994140625 -670.7376708984375 1306.499267578125 -701.8179931640625Q1287.59912109375 -732.8983154296875 1287.59912109375 -770.6986083984375Q1287.59912109375 -804.4989013671875 1305.4093627929688 -833.1492309570312Q1323.2196044921875 -861.799560546875 1354.5099487304688 -879.8997802734375Q1385.80029296875 -898.0 1425.6005859375 -898.0Q1477.1009521484375 -898.0 1514.3212890625 -875.8997802734375Q1551.5416259765625 -853.799560546875 1571.5718383789062 -815.6492309570312Q1591.60205078125 -777.4989013671875 1591.60205078125 -728.6986083984375Q1591.60205078125 -642.598388671875 1531.9520874023438 -541.7984619140625Q1472.3021240234375 -440.99853515625 1366.442138671875 -341.80877685546875Q1260.5821533203125 -242.6190185546875 1121.2321166992188 -160.84930419921875Q981.882080078125 -79.07958984375 821.4119262695312 -29.539794921875Q660.9417724609375 20.0 493.00146484375 20.0Z" transform="translate(192.08 336.81) scale(0.05031)" fill="#F5F5F7"/><path d="M745.5 20.0 189.5 -1500.0H500.82748091603054L902 -426L1281.5 -1500.0H1285.5L751 20ZM191.5 -1500.0V-4.0H347V0H43V-4H187.5V-1496.0H33.5V-1500.0ZM1733.5 -1500.0V-1496.0H1593.5V-4.0H1733.5V0.0H1123V-4H1283.5V-1500.0Z" transform="translate(273.45 334.25) scale(0.08386)" fill="url(#lmg)"/></g></svg>